<svg width="1500" height="500" viewBox="0 0 1500 500" fill="none" xmlns="http://www.w3.org/2000/svg">
<rect width="1500" height="500" fill="black"/>
<path d="M697.375 232V138.875H758.25V151.25H711.625V178.938H754.75V191.125H711.625V232H697.375ZM766.705 232V166H780.205V232H766.705ZM773.393 154.625C771.101 154.625 769.143 153.833 767.518 152.25C765.893 150.625 765.08 148.667 765.08 146.375C765.08 144.083 765.893 142.146 767.518 140.562C769.143 138.938 771.101 138.125 773.393 138.125C775.726 138.125 777.705 138.938 779.33 140.562C780.955 142.146 781.768 144.083 781.768 146.375C781.768 148.667 780.955 150.625 779.33 152.25C777.705 153.833 775.726 154.625 773.393 154.625ZM806.535 194.125V232H793.035V166H806.285V175.938C810.785 168.438 817.452 164.688 826.285 164.688C830.785 164.688 834.827 165.688 838.41 167.688C842.035 169.646 844.889 172.562 846.973 176.438C849.056 180.312 850.098 185.125 850.098 190.875V232H836.598V192.625C836.598 187.375 835.348 183.417 832.848 180.75C830.348 178.083 826.827 176.75 822.285 176.75C817.827 176.75 814.077 178.125 811.035 180.875C808.035 183.583 806.535 188 806.535 194.125ZM883.115 233.062C876.573 233.062 871.115 231.396 866.74 228.062C862.407 224.688 860.24 219.708 860.24 213.125C860.24 208.125 861.469 204.292 863.928 201.625C866.428 198.917 869.657 196.979 873.615 195.812C877.615 194.604 881.844 193.75 886.303 193.25C890.428 192.75 893.698 192.333 896.115 192C898.532 191.667 900.24 191.167 901.24 190.5C902.282 189.792 902.803 188.646 902.803 187.062V186.5C902.803 183.375 901.636 180.792 899.303 178.75C897.011 176.708 893.782 175.688 889.615 175.688C885.448 175.688 882.053 176.688 879.428 178.688C876.803 180.688 875.365 183.188 875.115 186.188H861.865C862.198 179.854 864.865 174.688 869.865 170.688C874.907 166.688 881.553 164.688 889.803 164.688C898.011 164.688 904.448 166.688 909.115 170.688C913.823 174.688 916.178 180.042 916.178 186.75V232H902.865V222.625H902.615C901.24 225.333 899.053 227.75 896.053 229.875C893.094 232 888.782 233.062 883.115 233.062ZM885.99 222.312C891.698 222.312 895.928 220.833 898.678 217.875C901.469 214.875 902.865 211.354 902.865 207.312V199.688C901.948 200.354 899.969 200.979 896.928 201.562C893.928 202.104 890.678 202.625 887.178 203.125C883.594 203.667 880.428 204.688 877.678 206.188C874.969 207.646 873.615 210.042 873.615 213.375C873.615 216.167 874.719 218.354 876.928 219.938C879.136 221.521 882.157 222.312 885.99 222.312ZM942.57 194.125V232H929.07V166H942.32V175.938C946.82 168.438 953.487 164.688 962.32 164.688C966.82 164.688 970.862 165.688 974.445 167.688C978.07 169.646 980.924 172.562 983.008 176.438C985.091 180.312 986.133 185.125 986.133 190.875V232H972.633V192.625C972.633 187.375 971.383 183.417 968.883 180.75C966.383 178.083 962.862 176.75 958.32 176.75C953.862 176.75 950.112 178.125 947.07 180.875C944.07 183.583 942.57 188 942.57 194.125ZM1027.4 233.5C1021.07 233.5 1015.52 232.042 1010.77 229.125C1006.07 226.208 1002.4 222.167 999.775 217C997.15 211.792 995.837 205.833 995.837 199.125C995.837 192.333 997.15 186.333 999.775 181.125C1002.4 175.917 1006.09 171.854 1010.84 168.938C1015.59 165.979 1021.11 164.5 1027.4 164.5C1032.69 164.5 1037.42 165.542 1041.59 167.625C1045.75 169.708 1049.13 172.562 1051.71 176.188C1054.3 179.812 1055.86 183.979 1056.4 188.688H1043.02C1042.36 184.979 1040.71 181.958 1038.09 179.625C1035.46 177.25 1031.92 176.062 1027.46 176.062C1021.84 176.062 1017.42 178.167 1014.21 182.375C1011.05 186.542 1009.46 192.125 1009.46 199.125C1009.46 206.042 1011.05 211.583 1014.21 215.75C1017.38 219.875 1021.8 221.938 1027.46 221.938C1031.96 221.938 1035.42 220.792 1037.84 218.5C1040.3 216.167 1041.96 213.083 1042.84 209.25H1056.4C1055.9 213.875 1054.36 218.021 1051.77 221.688C1049.19 225.312 1045.8 228.188 1041.59 230.312C1037.42 232.438 1032.69 233.5 1027.4 233.5ZM1093.92 233.5C1087.38 233.5 1081.75 232.021 1077.04 229.062C1072.33 226.104 1068.71 222.042 1066.17 216.875C1063.67 211.667 1062.42 205.75 1062.42 199.125C1062.42 192.417 1063.73 186.458 1066.36 181.25C1068.98 176.042 1072.61 171.958 1077.23 169C1081.86 166 1087.19 164.5 1093.23 164.5C1099.48 164.5 1104.92 165.958 1109.54 168.875C1114.17 171.792 1117.75 175.833 1120.29 181C1122.83 186.167 1124.11 192.146 1124.11 198.938V202.625H1075.67C1075.88 208.5 1077.56 213.25 1080.73 216.875C1083.94 220.5 1088.4 222.312 1094.11 222.312C1098.4 222.312 1101.92 221.354 1104.67 219.438C1107.46 217.521 1109.31 215 1110.23 211.875H1123.17C1122.33 216.167 1120.54 219.938 1117.79 223.188C1115.08 226.396 1111.67 228.917 1107.54 230.75C1103.46 232.583 1098.92 233.5 1093.92 233.5ZM1075.79 192.562H1110.98C1110.44 187.354 1108.61 183.25 1105.48 180.25C1102.36 177.208 1098.31 175.688 1093.36 175.688C1088.44 175.688 1084.42 177.208 1081.29 180.25C1078.17 183.25 1076.33 187.354 1075.79 192.562ZM1140.81 233.062C1138.35 233.062 1136.27 232.208 1134.56 230.5C1132.85 228.792 1132 226.708 1132 224.25C1132 221.792 1132.85 219.708 1134.56 218C1136.27 216.25 1138.35 215.375 1140.81 215.375C1143.31 215.375 1145.41 216.25 1147.12 218C1148.83 219.708 1149.68 221.792 1149.68 224.25C1149.68 226.708 1148.83 228.792 1147.12 230.5C1145.41 232.208 1143.31 233.062 1140.81 233.062ZM697.375 360V266.875H732.938C742.938 266.875 750.854 269.5 756.688 274.75C762.562 279.958 765.5 287.042 765.5 296C765.5 302.458 763.833 307.979 760.5 312.562C757.208 317.104 752.667 320.417 746.875 322.5L767 360H751.062L732.625 324.938C732.417 324.938 732.208 324.938 732 324.938H711.625V360H697.375ZM711.625 312.875H732.375C738.292 312.875 742.958 311.375 746.375 308.375C749.792 305.333 751.5 301.208 751.5 296C751.5 290.792 749.771 286.688 746.312 283.688C742.896 280.646 738.208 279.125 732.25 279.125H711.625V312.875ZM801.893 361.5C795.351 361.5 789.726 360.021 785.018 357.062C780.309 354.104 776.684 350.042 774.143 344.875C771.643 339.667 770.393 333.75 770.393 327.125C770.393 320.417 771.705 314.458 774.33 309.25C776.955 304.042 780.58 299.958 785.205 297C789.83 294 795.163 292.5 801.205 292.5C807.455 292.5 812.893 293.958 817.518 296.875C822.143 299.792 825.726 303.833 828.268 309C830.809 314.167 832.08 320.146 832.08 326.938V330.625H783.643C783.851 336.5 785.538 341.25 788.705 344.875C791.913 348.5 796.372 350.312 802.08 350.312C806.372 350.312 809.893 349.354 812.643 347.438C815.434 345.521 817.288 343 818.205 339.875H831.143C830.309 344.167 828.518 347.938 825.768 351.188C823.059 354.396 819.643 356.917 815.518 358.75C811.434 360.583 806.893 361.5 801.893 361.5ZM783.768 320.562H818.955C818.413 315.354 816.58 311.25 813.455 308.25C810.33 305.208 806.288 303.688 801.33 303.688C796.413 303.688 792.393 305.208 789.268 308.25C786.143 311.25 784.309 315.354 783.768 320.562ZM841.535 360V294H855.035V360H841.535ZM848.223 282.625C845.931 282.625 843.973 281.833 842.348 280.25C840.723 278.625 839.91 276.667 839.91 274.375C839.91 272.083 840.723 270.146 842.348 268.562C843.973 266.938 845.931 266.125 848.223 266.125C850.556 266.125 852.535 266.938 854.16 268.562C855.785 270.146 856.598 272.083 856.598 274.375C856.598 276.667 855.785 278.625 854.16 280.25C852.535 281.833 850.556 282.625 848.223 282.625ZM867.865 360V294H880.99V305.125C883.032 301.042 885.803 297.958 889.303 295.875C892.803 293.75 896.594 292.688 900.678 292.688C905.178 292.688 909.115 293.833 912.49 296.125C915.907 298.417 918.303 301.354 919.678 304.938C921.469 301.312 924.178 298.375 927.803 296.125C931.469 293.833 935.74 292.688 940.615 292.688C944.698 292.688 948.407 293.583 951.74 295.375C955.073 297.167 957.719 299.833 959.678 303.375C961.636 306.875 962.615 311.271 962.615 316.562V360H949.115V317.812C949.115 313.104 947.803 309.708 945.178 307.625C942.594 305.542 939.532 304.5 935.99 304.5C931.615 304.5 928.157 305.854 925.615 308.562C923.115 311.229 921.865 314.646 921.865 318.812V360H908.615V316.938C908.615 313.188 907.407 310.188 904.99 307.938C902.573 305.646 899.511 304.5 895.803 304.5C891.969 304.5 888.594 305.833 885.678 308.5C882.803 311.167 881.365 315.083 881.365 320.25V360H867.865ZM995.57 361.062C989.028 361.062 983.57 359.396 979.195 356.062C974.862 352.688 972.695 347.708 972.695 341.125C972.695 336.125 973.924 332.292 976.383 329.625C978.883 326.917 982.112 324.979 986.07 323.812C990.07 322.604 994.299 321.75 998.758 321.25C1002.88 320.75 1006.15 320.333 1008.57 320C1010.99 319.667 1012.7 319.167 1013.7 318.5C1014.74 317.792 1015.26 316.646 1015.26 315.062V314.5C1015.26 311.375 1014.09 308.792 1011.76 306.75C1009.47 304.708 1006.24 303.688 1002.07 303.688C997.903 303.688 994.508 304.688 991.883 306.688C989.258 308.688 987.82 311.188 987.57 314.188H974.32C974.653 307.854 977.32 302.688 982.32 298.688C987.362 294.688 994.008 292.688 1002.26 292.688C1010.47 292.688 1016.9 294.688 1021.57 298.688C1026.28 302.688 1028.63 308.042 1028.63 314.75V360H1015.32V350.625H1015.07C1013.7 353.333 1011.51 355.75 1008.51 357.875C1005.55 360 1001.24 361.062 995.57 361.062ZM998.445 350.312C1004.15 350.312 1008.38 348.833 1011.13 345.875C1013.92 342.875 1015.32 339.354 1015.32 335.312V327.688C1014.4 328.354 1012.42 328.979 1009.38 329.562C1006.38 330.104 1003.13 330.625 999.633 331.125C996.049 331.667 992.883 332.688 990.133 334.188C987.424 335.646 986.07 338.042 986.07 341.375C986.07 344.167 987.174 346.354 989.383 347.938C991.591 349.521 994.612 350.312 998.445 350.312ZM1070.46 387C1062.3 387 1055.65 385.188 1050.52 381.562C1045.4 377.979 1042.42 372.958 1041.59 366.5H1055.02C1055.86 369.667 1057.65 372.042 1060.4 373.625C1063.15 375.25 1066.5 376.062 1070.46 376.062C1075.75 376.062 1079.88 374.646 1082.84 371.812C1085.84 368.979 1087.34 364.917 1087.34 359.625V349.562H1087.27C1084.98 353.438 1082.11 356.292 1078.65 358.125C1075.19 359.917 1071.27 360.812 1066.9 360.812C1061.19 360.812 1056.19 359.375 1051.9 356.5C1047.61 353.625 1044.27 349.646 1041.9 344.562C1039.52 339.438 1038.34 333.521 1038.34 326.812C1038.34 320.104 1039.52 314.188 1041.9 309.062C1044.27 303.938 1047.61 299.938 1051.9 297.062C1056.19 294.146 1061.19 292.688 1066.9 292.688C1071.15 292.688 1075.07 293.604 1078.65 295.438C1082.23 297.271 1085.13 300.125 1087.34 304H1087.4V294H1100.65V359.062C1100.65 365.729 1099.3 371.104 1096.59 375.188C1093.88 379.312 1090.23 382.312 1085.65 384.188C1081.11 386.062 1076.05 387 1070.46 387ZM1069.71 349.312C1075.3 349.312 1079.73 347.271 1083.02 343.188C1086.36 339.062 1088.02 333.583 1088.02 326.75C1088.02 319.875 1086.36 314.396 1083.02 310.312C1079.73 306.188 1075.3 304.125 1069.71 304.125C1064.46 304.125 1060.19 306.062 1056.9 309.938C1053.61 313.771 1051.96 319.375 1051.96 326.75C1051.96 334.083 1053.61 339.688 1056.9 343.562C1060.19 347.396 1064.46 349.312 1069.71 349.312ZM1113.48 360V294H1126.98V360H1113.48ZM1120.17 282.625C1117.88 282.625 1115.92 281.833 1114.29 280.25C1112.67 278.625 1111.86 276.667 1111.86 274.375C1111.86 272.083 1112.67 270.146 1114.29 268.562C1115.92 266.938 1117.88 266.125 1120.17 266.125C1122.5 266.125 1124.48 266.938 1126.11 268.562C1127.73 270.146 1128.54 272.083 1128.54 274.375C1128.54 276.667 1127.73 278.625 1126.11 280.25C1124.48 281.833 1122.5 282.625 1120.17 282.625ZM1153.31 322.125V360H1139.81V294H1153.06V303.938C1157.56 296.438 1164.23 292.688 1173.06 292.688C1177.56 292.688 1181.6 293.688 1185.18 295.688C1188.81 297.646 1191.66 300.562 1193.75 304.438C1195.83 308.312 1196.87 313.125 1196.87 318.875V360H1183.37V320.625C1183.37 315.375 1182.12 311.417 1179.62 308.75C1177.12 306.083 1173.6 304.75 1169.06 304.75C1164.6 304.75 1160.85 306.125 1157.81 308.875C1154.81 311.583 1153.31 316 1153.31 322.125ZM1238.08 361.5C1231.54 361.5 1225.91 360.021 1221.2 357.062C1216.49 354.104 1212.87 350.042 1210.33 344.875C1207.83 339.667 1206.58 333.75 1206.58 327.125C1206.58 320.417 1207.89 314.458 1210.52 309.25C1213.14 304.042 1216.77 299.958 1221.39 297C1226.02 294 1231.35 292.5 1237.39 292.5C1243.64 292.5 1249.08 293.958 1253.7 296.875C1258.33 299.792 1261.91 303.833 1264.45 309C1266.99 314.167 1268.27 320.146 1268.27 326.938V330.625H1219.83C1220.04 336.5 1221.72 341.25 1224.89 344.875C1228.1 348.5 1232.56 350.312 1238.27 350.312C1242.56 350.312 1246.08 349.354 1248.83 347.438C1251.62 345.521 1253.47 343 1254.39 339.875H1267.33C1266.49 344.167 1264.7 347.938 1261.95 351.188C1259.24 354.396 1255.83 356.917 1251.7 358.75C1247.62 360.583 1243.08 361.5 1238.08 361.5ZM1219.95 320.562H1255.14C1254.6 315.354 1252.77 311.25 1249.64 308.25C1246.52 305.208 1242.47 303.688 1237.52 303.688C1232.6 303.688 1228.58 305.208 1225.45 308.25C1222.33 311.25 1220.49 315.354 1219.95 320.562ZM1303.09 361.312C1297.39 361.312 1292.39 359.875 1288.09 357C1283.8 354.125 1280.47 350.104 1278.09 344.938C1275.72 339.771 1274.53 333.792 1274.53 327C1274.53 320.208 1275.72 314.25 1278.09 309.125C1280.47 303.958 1283.8 299.938 1288.09 297.062C1292.39 294.146 1297.39 292.688 1303.09 292.688C1307.34 292.688 1311.24 293.583 1314.78 295.375C1318.32 297.167 1321.16 299.875 1323.28 303.5H1323.34V266.875H1336.84V360H1323.59V349.938H1323.53C1321.32 353.771 1318.45 356.625 1314.91 358.5C1311.37 360.375 1307.43 361.312 1303.09 361.312ZM1305.91 349.75C1311.49 349.75 1315.93 347.688 1319.22 343.562C1322.55 339.396 1324.22 333.875 1324.22 327C1324.22 320.083 1322.55 314.562 1319.22 310.438C1315.93 306.271 1311.49 304.188 1305.91 304.188C1300.66 304.188 1296.39 306.146 1293.09 310.062C1289.8 313.938 1288.16 319.583 1288.16 327C1288.16 334.375 1289.8 340.021 1293.09 343.938C1296.39 347.812 1300.66 349.75 1305.91 349.75ZM1356.92 361.062C1354.47 361.062 1352.38 360.208 1350.67 358.5C1348.97 356.792 1348.11 354.708 1348.11 352.25C1348.11 349.792 1348.97 347.708 1350.67 346C1352.38 344.25 1354.47 343.375 1356.92 343.375C1359.42 343.375 1361.53 344.25 1363.24 346C1364.95 347.708 1365.8 349.792 1365.8 352.25C1365.8 354.708 1364.95 356.792 1363.24 358.5C1361.53 360.208 1359.42 361.062 1356.92 361.062Z" fill="white"/>
<rect width="1500" height="8" fill="#DCFF50"/>
<rect y="491" width="1500" height="8" fill="#DCFF50"/>
</svg>
